<svg xmlns="http://www.w3.org/2000/svg" viewBox="0 0 115.8 99.9"><defs><style>.cls-1{fill:#55741e;}</style></defs><title>Ресурс 4</title><g id="Слой_2" data-name="Слой 2"><g id="Слой_1-2" data-name="Слой 1"><path class="cls-1" d="M.1,96.3a.76.76,0,0,0,.1.4c0,.1.1.3.1.4s.1.2.1.4.1.2.2.4.1.2.2.3.2.2.2.3l.3.3.1.1a.1.1,0,0,1,.1.1,2.38,2.38,0,0,0,1.1.6c.1,0,.1,0,.2.1a5,5,0,0,0,1.2.2H111.9a5,5,0,0,0,1.2-.2c.1,0,.1,0,.2-.1a10.91,10.91,0,0,0,1.1-.6.1.1,0,0,0,.1-.1l.1-.1.3-.3c.1-.1.2-.2.2-.3s.1-.2.2-.3.1-.2.2-.4.1-.2.1-.4.1-.3.1-.4.1-.2.1-.4V4.1A4.06,4.06,0,0,0,111.7,0H4.1A4.06,4.06,0,0,0,0,4.1V95.9c.1.1.1.2.1.4Zm12.8-4.7L43.2,55.4l12.6,8.8a4.13,4.13,0,0,0,4.6,0L73,55.4l30.3,36.2ZM108,84.4,79.7,50.7,107.9,31V84.4ZM8.3,8.2H108V21.1L58.2,55.8,8.3,21.1ZM8.3,31,36.5,50.7,8.3,84.4Z"/></g></g></svg>