<svg xmlns="http://www.w3.org/2000/svg" viewBox="0 0 92.5 116.1"><defs><style>.cls-1{fill:#55741e;}</style></defs><title>Ресурс 6</title><g id="Слой_2" data-name="Слой 2"><g id="Слой_1-2" data-name="Слой 1"><path class="cls-1" d="M46.3,0A46.41,46.41,0,0,0,0,46.4a47,47,0,0,0,.9,9.2c0,.2.1.4.1.7C6.1,79.2,42,113.6,43.5,115a3.84,3.84,0,0,0,2.8,1.1,4.3,4.3,0,0,0,2.8-1.1c1.5-1.5,37.2-35.8,42.3-58.2,0-.2.1-.4.1-.6A46.6,46.6,0,0,0,46.3,0ZM83.5,54.7V55c-3.8,16.6-28.7,42.8-37.2,51.3C37.8,97.8,12.8,71.6,9,54.6a.9.9,0,0,0-.1-.5,41.29,41.29,0,0,1-.8-7.8,38.15,38.15,0,1,1,76.3,0A38.61,38.61,0,0,1,83.5,54.7Z"/><path class="cls-1" d="M46.3,26.1A15.5,15.5,0,1,0,61.8,41.6,15.51,15.51,0,0,0,46.3,26.1Zm0,22.9a7.4,7.4,0,1,1,7.4-7.4A7.38,7.38,0,0,1,46.3,49Z"/></g></g></svg>