<!-- Generator: Adobe Illustrator 21.0.0, SVG Export Plug-In  -->
<svg version="1.1"
	 xmlns="http://www.w3.org/2000/svg" xmlns:xlink="http://www.w3.org/1999/xlink" xmlns:a="http://ns.adobe.com/AdobeSVGViewerExtensions/3.0/"
	 x="0px" y="0px" width="100.188px" height="64.964px" viewBox="0 0 100.188 64.964"
	 style="enable-background:new 0 0 100.188 64.964;" xml:space="preserve">
<style type="text/css">
	.st0{fill:#58714B;}
	.st1{fill:#E3D84B;}
	.st2{fill:none;}
	.st3{fill:none;stroke:#E3D84B;stroke-width:0.9921;stroke-miterlimit:10;}
	.st4{font-family:'MullerBold';}
	.st5{font-size:12px;}
	.st6{letter-spacing:1;}
</style>
<defs>
</defs>
<path class="st0" d="M48.267,38.819c-0.898,0-1.796-0.004-2.694,0.004c-0.142,0.001-0.193-0.048-0.234-0.176
	c-0.305-0.956-0.62-1.908-0.923-2.865c-0.044-0.14-0.115-0.2-0.252-0.235c-1.564-0.393-3.039-1.004-4.421-1.834
	c-0.113-0.068-0.196-0.064-0.309-0.006c-0.898,0.463-1.8,0.918-2.698,1.382c-0.119,0.062-0.19,0.057-0.29-0.043
	c-1.261-1.269-2.526-2.534-3.795-3.795c-0.11-0.109-0.119-0.188-0.049-0.322c0.462-0.891,0.913-1.788,1.373-2.68
	c0.058-0.112,0.061-0.195-0.007-0.309c-0.83-1.383-1.444-2.857-1.834-4.421c-0.038-0.152-0.115-0.214-0.254-0.259
	c-0.943-0.3-1.884-0.611-2.827-0.91c-0.142-0.045-0.198-0.104-0.196-0.261c0.011-1.124,0.013-2.248,0.014-3.372
	c0-0.665-0.002-1.329-0.013-1.994c-0.002-0.137,0.04-0.196,0.172-0.238c0.981-0.311,1.961-0.63,2.939-0.951
	c0.057-0.019,0.128-0.078,0.141-0.132c0.384-1.589,1.005-3.08,1.841-4.482c0.084-0.14,0.077-0.241,0.006-0.379
	c-0.458-0.886-0.905-1.777-1.363-2.663c-0.062-0.12-0.056-0.193,0.043-0.292c1.274-1.266,2.545-2.535,3.811-3.808
	c0.101-0.101,0.174-0.1,0.291-0.04c0.892,0.46,1.789,0.911,2.68,1.373c0.128,0.066,0.22,0.063,0.344-0.011
	c1.378-0.825,2.846-1.435,4.403-1.825c0.139-0.035,0.206-0.098,0.25-0.236c0.301-0.95,0.614-1.896,0.918-2.846
	C45.375,0.065,45.422-0.001,45.577,0c1.417,0.01,2.833,0.011,4.25,0.012c0.385,0,0.77,0.005,1.154-0.012
	c0.158-0.007,0.186,0.082,0.222,0.193c0.309,0.955,0.621,1.908,0.926,2.864c0.039,0.122,0.095,0.18,0.223,0.212
	c1.564,0.391,3.039,1.002,4.423,1.829c0.124,0.074,0.214,0.081,0.343,0.014c0.897-0.464,1.8-0.918,2.698-1.381
	c0.113-0.059,0.18-0.05,0.271,0.042c1.262,1.268,2.526,2.534,3.796,3.794c0.119,0.118,0.119,0.199,0.046,0.339
	c-0.462,0.891-0.913,1.788-1.373,2.68c-0.055,0.107-0.055,0.185,0.008,0.29c0.834,1.388,1.45,2.868,1.842,4.439
	c0.036,0.144,0.107,0.202,0.241,0.245c0.943,0.3,1.883,0.611,2.827,0.91c0.15,0.048,0.205,0.111,0.204,0.276
	c-0.007,1.776-0.007,3.552,0,5.328c0.001,0.164-0.05,0.227-0.203,0.275c-0.944,0.298-1.883,0.611-2.827,0.911
	c-0.144,0.046-0.212,0.118-0.248,0.265c-0.388,1.552-0.994,3.014-1.818,4.385c-0.08,0.133-0.078,0.227-0.008,0.36
	c0.459,0.885,0.906,1.776,1.366,2.661c0.073,0.14,0.046,0.216-0.059,0.321c-1.269,1.261-2.534,2.527-3.795,3.795
	c-0.092,0.092-0.159,0.101-0.272,0.042c-0.892-0.46-1.789-0.911-2.68-1.372c-0.132-0.068-0.227-0.076-0.362,0.005
	c-1.371,0.823-2.834,1.43-4.386,1.816c-0.16,0.04-0.227,0.118-0.273,0.264c-0.3,0.944-0.611,1.883-0.909,2.827
	c-0.046,0.146-0.111,0.192-0.264,0.191c-0.891-0.008-1.783-0.004-2.674-0.004C48.267,38.821,48.267,38.82,48.267,38.819z
	 M48.284,8.15c-6.22-0.008-11.265,5.021-11.277,11.24c-0.012,6.226,5.027,11.279,11.254,11.285
	c6.207,0.006,11.257-5.027,11.271-11.232C59.546,13.213,54.512,8.158,48.284,8.15z"/>
<g>
	<path class="st0" d="M0.899,61.688v-8.396h1.8v6.776h2.71v-6.776h1.799v6.776h2.711v-6.776h1.787v8.396H0.899z"/>
	<path class="st0" d="M15.814,53.125c2.219,0,4.485,1.355,4.485,4.474c0,2.986-2.278,4.258-4.533,4.258
		c-0.827,0-1.655-0.191-2.375-0.539v-1.775c0.564,0.491,1.344,0.695,2.111,0.695c1.392,0,2.734-0.455,2.986-1.979h-3.79v-1.547
		h3.754c-0.288-1.487-1.547-1.955-2.914-1.968c-0.731,0-1.583,0.204-2.147,0.636v-1.715C14.111,53.305,14.963,53.125,15.814,53.125z
		"/>
	<path class="st0" d="M29.18,53.293v8.396h-1.799v-6.776h-2.303c-0.288,3.574-0.672,6.873-2.998,6.885
		c-0.288,0-0.6-0.036-0.936-0.156v-1.583c0.155,0.048,0.336,0.072,0.575,0.06c1.415-0.096,1.487-3.873,1.703-6.824H29.18z"/>
	<path class="st0" d="M35.025,53.125c0.84,0,1.68,0.181,2.398,0.54v1.715c-0.539-0.42-1.319-0.659-2.099-0.659
		c-1.475,0-2.962,0.84-2.962,2.866c-0.013,1.847,1.499,2.663,2.962,2.663c0.863,0,1.655-0.24,2.159-0.696v1.764
		c-0.72,0.348-1.547,0.539-2.435,0.539c-2.243,0-4.534-1.343-4.534-4.27C30.528,54.516,32.783,53.125,35.025,53.125z"/>
	<path class="st0" d="M39.168,61.688l3.431-8.396h1.942l3.418,8.396h-1.858l-0.612-1.571H41.65l-0.623,1.571H39.168z M42.215,58.63
		h2.71L43.75,55.62c-0.061-0.168-0.12-0.336-0.181-0.66c-0.06,0.324-0.119,0.492-0.191,0.66L42.215,58.63z"/>
	<path class="st0" d="M49.523,58.198v-1.415h5.613v1.415H49.523z"/>
	<path class="st0" d="M64.328,53.293v1.619h-2.579v6.776h-1.787v-6.776h-2.578v-1.619H64.328z"/>
	<path class="st0" d="M71.54,53.293v1.584h-4.113v1.786h3.754v1.571h-3.754v1.871h4.186v1.583h-5.985v-8.396H71.54z"/>
	<path class="st0" d="M72.54,61.688l3.011-4.354l-2.831-4.042h2.1l1.858,2.759l1.847-2.759h2.111l-2.83,4.042l3.01,4.354h-2.11
		l-2.027-3.058l-2.039,3.058H72.54z"/>
	<path class="st0" d="M89.251,53.293v8.396h-1.799v-3.382h-3.766v3.382h-1.8v-8.396h1.8v3.383h3.766v-3.383H89.251z"/>
	<path class="st0" d="M94.81,53.125c2.974,0,4.461,2.087,4.461,4.366c0,2.278-1.487,4.365-4.461,4.365
		c-2.975,0-4.462-2.087-4.462-4.365C90.348,55.212,91.835,53.125,94.81,53.125z M94.81,54.793c-1.752,0-2.627,1.223-2.627,2.698
		c0,1.475,0.875,2.698,2.627,2.698c1.738,0,2.614-1.224,2.614-2.698C97.424,56.015,96.548,54.793,94.81,54.793z"/>
</g>
<path class="st0" d="M48.269,32.5L48.269,32.5c-7.228,0-13.087-5.859-13.087-13.087v0c0-7.228,5.859-13.087,13.087-13.087h0
	c7.228,0,13.087,5.859,13.087,13.087v0C61.356,26.641,55.497,32.5,48.269,32.5z"/>
<g>
	<path class="st1" d="M48.138,8.68c5.918,0,10.733,4.815,10.733,10.733s-4.815,10.733-10.733,10.733s-10.733-4.815-10.733-10.733
		S42.22,8.68,48.138,8.68 M48.138,5.655L48.138,5.655c-7.598,0-13.758,6.16-13.758,13.758v0c0,7.598,6.16,13.758,13.758,13.758h0
		c7.598,0,13.758-6.16,13.758-13.758v0C61.896,11.814,55.737,5.655,48.138,5.655L48.138,5.655z"/>
</g>
<g>
	<path class="st2" d="M47.322,33.146L47.322,33.146c-7.585-0.451-13.368-6.966-12.917-14.55l0,0
		c0.451-7.585,6.966-13.368,14.55-12.917l0,0c7.585,0.451,13.368,6.966,12.917,14.55l0,0C61.421,27.814,54.906,33.597,47.322,33.146
		z"/>
</g>
<line class="st3" x1="48.463" y1="32.159" x2="48.463" y2="17.596"/>
<polygon class="st1" points="49.906,21.525 49.906,17.969 53.462,15.68 53.462,19.236 "/>
<polygon class="st1" points="48.459,18.603 46.336,14.747 48.467,10.843 50.59,14.699 "/>
<polygon class="st1" points="47.021,21.525 47.021,17.969 43.464,15.68 43.464,19.236 "/>
<polygon class="st1" points="49.906,26.526 49.906,22.969 53.462,20.68 53.462,24.236 "/>
<polygon class="st1" points="47.021,26.526 47.021,22.969 43.464,20.68 43.464,24.236 "/>
<polygon class="st1" points="49.906,31.526 49.906,27.97 53.462,25.68 53.462,29.237 "/>
<polygon class="st1" points="47.021,31.526 47.021,27.97 43.464,25.68 43.464,29.237 "/>
</svg>